<?xml version="1.0" encoding="UTF-8" standalone="no"?>
<!DOCTYPE svg PUBLIC "-//W3C//DTD SVG 1.1//EN"
 "http://www.w3.org/Graphics/SVG/1.1/DTD/svg11.dtd">
<!-- Generated by graphviz version 2.40.1 (20161225.0304)
 -->
<!-- Title: %3 Pages: 1 -->
<svg width="222pt" height="448pt"
 viewBox="0.00 0.00 222.00 448.00" xmlns="http://www.w3.org/2000/svg" xmlns:xlink="http://www.w3.org/1999/xlink">
<g id="graph0" class="graph" transform="scale(1 1) rotate(0) translate(4 444)">
<title>%3</title>
<polygon fill="#ffffff" stroke="transparent" points="-4,4 -4,-444 218,-444 218,4 -4,4"/>
<!-- 140182916797840 -->
<g id="node1" class="node">
<title>140182916797840</title>
<polygon fill="#caff70" stroke="#000000" points="133.5,-31 79.5,-31 79.5,0 133.5,0 133.5,-31"/>
<text text-anchor="middle" x="106.5" y="-7" font-family="monospace" font-size="10.00" fill="#000000"> ()</text>
</g>
<!-- 140182908068752 -->
<g id="node2" class="node">
<title>140182908068752</title>
<polygon fill="#d3d3d3" stroke="#000000" points="154,-86 59,-86 59,-67 154,-67 154,-86"/>
<text text-anchor="middle" x="106.5" y="-74" font-family="monospace" font-size="10.00" fill="#000000">MeanBackward0</text>
</g>
<!-- 140182908068752&#45;&gt;140182916797840 -->
<g id="edge9" class="edge">
<title>140182908068752&#45;&gt;140182916797840</title>
<path fill="none" stroke="#000000" d="M106.5,-66.9688C106.5,-60.1289 106.5,-50.5621 106.5,-41.5298"/>
<polygon fill="#000000" stroke="#000000" points="110.0001,-41.3678 106.5,-31.3678 103.0001,-41.3678 110.0001,-41.3678"/>
</g>
<!-- 140182908070032 -->
<g id="node3" class="node">
<title>140182908070032</title>
<polygon fill="#d3d3d3" stroke="#000000" points="151,-141 62,-141 62,-122 151,-122 151,-141"/>
<text text-anchor="middle" x="106.5" y="-129" font-family="monospace" font-size="10.00" fill="#000000">PowBackward0</text>
</g>
<!-- 140182908070032&#45;&gt;140182908068752 -->
<g id="edge1" class="edge">
<title>140182908070032&#45;&gt;140182908068752</title>
<path fill="none" stroke="#000000" d="M106.5,-121.9197C106.5,-114.9083 106.5,-105.1442 106.5,-96.4652"/>
<polygon fill="#000000" stroke="#000000" points="110.0001,-96.3408 106.5,-86.3408 103.0001,-96.3409 110.0001,-96.3408"/>
</g>
<!-- 140182908068240 -->
<g id="node4" class="node">
<title>140182908068240</title>
<polygon fill="#d3d3d3" stroke="#000000" points="151,-196 62,-196 62,-177 151,-177 151,-196"/>
<text text-anchor="middle" x="106.5" y="-184" font-family="monospace" font-size="10.00" fill="#000000">SubBackward0</text>
</g>
<!-- 140182908068240&#45;&gt;140182908070032 -->
<g id="edge2" class="edge">
<title>140182908068240&#45;&gt;140182908070032</title>
<path fill="none" stroke="#000000" d="M106.5,-176.9197C106.5,-169.9083 106.5,-160.1442 106.5,-151.4652"/>
<polygon fill="#000000" stroke="#000000" points="110.0001,-151.3408 106.5,-141.3408 103.0001,-151.3409 110.0001,-151.3408"/>
</g>
<!-- 140187204837648 -->
<g id="node5" class="node">
<title>140187204837648</title>
<polygon fill="#d3d3d3" stroke="#000000" points="151,-251 62,-251 62,-232 151,-232 151,-251"/>
<text text-anchor="middle" x="106.5" y="-239" font-family="monospace" font-size="10.00" fill="#000000">AddBackward0</text>
</g>
<!-- 140187204837648&#45;&gt;140182908068240 -->
<g id="edge3" class="edge">
<title>140187204837648&#45;&gt;140182908068240</title>
<path fill="none" stroke="#000000" d="M106.5,-231.9197C106.5,-224.9083 106.5,-215.1442 106.5,-206.4652"/>
<polygon fill="#000000" stroke="#000000" points="110.0001,-206.3408 106.5,-196.3408 103.0001,-206.3409 110.0001,-206.3408"/>
</g>
<!-- 140187204838736 -->
<g id="node6" class="node">
<title>140187204838736</title>
<polygon fill="#d3d3d3" stroke="#000000" points="101,-306 0,-306 0,-287 101,-287 101,-306"/>
<text text-anchor="middle" x="50.5" y="-294" font-family="monospace" font-size="10.00" fill="#000000">AccumulateGrad</text>
</g>
<!-- 140187204838736&#45;&gt;140187204837648 -->
<g id="edge4" class="edge">
<title>140187204838736&#45;&gt;140187204837648</title>
<path fill="none" stroke="#000000" d="M60.2545,-286.9197C68.1865,-279.1293 79.5788,-267.9405 89.0712,-258.6176"/>
<polygon fill="#000000" stroke="#000000" points="91.7982,-260.845 96.4802,-251.3408 86.8932,-255.8509 91.7982,-260.845"/>
</g>
<!-- 140182941413744 -->
<g id="node7" class="node">
<title>140182941413744</title>
<polygon fill="#add8e6" stroke="#000000" points="77.5,-373 23.5,-373 23.5,-342 77.5,-342 77.5,-373"/>
<text text-anchor="middle" x="50.5" y="-349" font-family="monospace" font-size="10.00" fill="#000000"> (1)</text>
</g>
<!-- 140182941413744&#45;&gt;140187204838736 -->
<g id="edge5" class="edge">
<title>140182941413744&#45;&gt;140187204838736</title>
<path fill="none" stroke="#000000" d="M50.5,-341.791C50.5,-334.0249 50.5,-324.5706 50.5,-316.3129"/>
<polygon fill="#000000" stroke="#000000" points="54.0001,-316.0647 50.5,-306.0648 47.0001,-316.0648 54.0001,-316.0647"/>
</g>
<!-- 140187204837904 -->
<g id="node8" class="node">
<title>140187204837904</title>
<polygon fill="#d3d3d3" stroke="#000000" points="208,-306 119,-306 119,-287 208,-287 208,-306"/>
<text text-anchor="middle" x="163.5" y="-294" font-family="monospace" font-size="10.00" fill="#000000">MulBackward0</text>
</g>
<!-- 140187204837904&#45;&gt;140187204837648 -->
<g id="edge6" class="edge">
<title>140187204837904&#45;&gt;140187204837648</title>
<path fill="none" stroke="#000000" d="M153.5714,-286.9197C145.4169,-279.0514 133.6697,-267.7164 123.9508,-258.3385"/>
<polygon fill="#000000" stroke="#000000" points="126.3252,-255.7659 116.6987,-251.3408 121.4646,-260.8032 126.3252,-255.7659"/>
</g>
<!-- 140187204838544 -->
<g id="node9" class="node">
<title>140187204838544</title>
<polygon fill="#d3d3d3" stroke="#000000" points="214,-367 113,-367 113,-348 214,-348 214,-367"/>
<text text-anchor="middle" x="163.5" y="-355" font-family="monospace" font-size="10.00" fill="#000000">AccumulateGrad</text>
</g>
<!-- 140187204838544&#45;&gt;140187204837904 -->
<g id="edge7" class="edge">
<title>140187204838544&#45;&gt;140187204837904</title>
<path fill="none" stroke="#000000" d="M163.5,-347.9688C163.5,-339.5131 163.5,-326.8901 163.5,-316.2615"/>
<polygon fill="#000000" stroke="#000000" points="167.0001,-316.1656 163.5,-306.1656 160.0001,-316.1657 167.0001,-316.1656"/>
</g>
<!-- 140182916797072 -->
<g id="node10" class="node">
<title>140182916797072</title>
<polygon fill="#add8e6" stroke="#000000" points="190.5,-440 136.5,-440 136.5,-409 190.5,-409 190.5,-440"/>
<text text-anchor="middle" x="163.5" y="-416" font-family="monospace" font-size="10.00" fill="#000000"> (1)</text>
</g>
<!-- 140182916797072&#45;&gt;140187204838544 -->
<g id="edge8" class="edge">
<title>140182916797072&#45;&gt;140187204838544</title>
<path fill="none" stroke="#000000" d="M163.5,-408.9604C163.5,-399.6356 163.5,-387.6748 163.5,-377.6317"/>
<polygon fill="#000000" stroke="#000000" points="167.0001,-377.35 163.5,-367.3501 160.0001,-377.3501 167.0001,-377.35"/>
</g>
</g>
</svg>
